<mxfile host="Electron" agent="Mozilla/5.0 (Windows NT 10.0; Win64; x64) AppleWebKit/537.36 (KHTML, like Gecko) draw.io/24.7.5 Chrome/126.0.6478.183 Electron/31.3.0 Safari/537.36" version="24.7.5">
  <diagram name="Page-1" id="zTCGZyGpIAITsfq91n49">
    <mxGraphModel dx="1235" dy="-96" grid="1" gridSize="10" guides="1" tooltips="1" connect="1" arrows="1" fold="1" page="1" pageScale="1" pageWidth="1169" pageHeight="827" math="0" shadow="0">
      <root>
        <mxCell id="0" />
        <mxCell id="1" parent="0" />
        <mxCell id="QG6-v7D_vH4LsAMc98OB-57" value="" style="rounded=1;whiteSpace=wrap;html=1;fillColor=none;dashed=1;dashPattern=1 1;strokeWidth=2;arcSize=3;" parent="1" vertex="1">
          <mxGeometry x="110" y="920" width="1010" height="340" as="geometry" />
        </mxCell>
        <mxCell id="QG6-v7D_vH4LsAMc98OB-2" value="" style="rounded=0;whiteSpace=wrap;html=1;dashed=1;dashPattern=1 1;fontStyle=1;fontSize=11;strokeWidth=2;" parent="1" vertex="1">
          <mxGeometry x="320" y="960" width="280" height="200" as="geometry" />
        </mxCell>
        <mxCell id="QG6-v7D_vH4LsAMc98OB-3" value="Intra 4x4" style="rounded=0;whiteSpace=wrap;html=1;fontStyle=1;fontSize=11;strokeWidth=2;" parent="1" vertex="1">
          <mxGeometry x="420" y="970" width="80" height="40" as="geometry" />
        </mxCell>
        <mxCell id="QG6-v7D_vH4LsAMc98OB-4" style="edgeStyle=orthogonalEdgeStyle;rounded=0;orthogonalLoop=1;jettySize=auto;html=1;entryX=0.75;entryY=1;entryDx=0;entryDy=0;fontStyle=1;fontSize=11;strokeWidth=2;" parent="1" source="QG6-v7D_vH4LsAMc98OB-5" target="QG6-v7D_vH4LsAMc98OB-7" edge="1">
          <mxGeometry relative="1" as="geometry">
            <Array as="points">
              <mxPoint x="520" y="1060" />
              <mxPoint x="520" y="1040" />
            </Array>
          </mxGeometry>
        </mxCell>
        <mxCell id="QG6-v7D_vH4LsAMc98OB-5" value="Intra 16x16" style="rounded=0;whiteSpace=wrap;html=1;fontStyle=1;fontSize=11;strokeWidth=2;" parent="1" vertex="1">
          <mxGeometry x="420" y="1040" width="80" height="40" as="geometry" />
        </mxCell>
        <mxCell id="QG6-v7D_vH4LsAMc98OB-7" value="&lt;font style=&quot;font-size: 11px;&quot;&gt;MUX&lt;/font&gt;" style="shape=trapezoid;perimeter=trapezoidPerimeter;whiteSpace=wrap;html=1;fixedSize=1;rotation=90;fontStyle=1;fontSize=11;strokeWidth=2;" parent="1" vertex="1">
          <mxGeometry x="520" y="1015" width="60" height="20" as="geometry" />
        </mxCell>
        <mxCell id="QG6-v7D_vH4LsAMc98OB-8" value="" style="endArrow=classic;html=1;rounded=0;exitX=1;exitY=0.5;exitDx=0;exitDy=0;entryX=0.25;entryY=1;entryDx=0;entryDy=0;fontStyle=1;fontSize=11;strokeWidth=2;" parent="1" source="QG6-v7D_vH4LsAMc98OB-3" target="QG6-v7D_vH4LsAMc98OB-7" edge="1">
          <mxGeometry width="50" height="50" relative="1" as="geometry">
            <mxPoint x="510" y="1015" as="sourcePoint" />
            <mxPoint x="560" y="965" as="targetPoint" />
            <Array as="points">
              <mxPoint x="520" y="990" />
              <mxPoint x="520" y="1010" />
            </Array>
          </mxGeometry>
        </mxCell>
        <mxCell id="QG6-v7D_vH4LsAMc98OB-10" value="Chroma 8x8" style="rounded=0;whiteSpace=wrap;html=1;fontStyle=1;fontSize=11;strokeWidth=2;" parent="1" vertex="1">
          <mxGeometry x="420" y="1110" width="80" height="40" as="geometry" />
        </mxCell>
        <mxCell id="QG6-v7D_vH4LsAMc98OB-12" value="-" style="ellipse;whiteSpace=wrap;html=1;aspect=fixed;fontStyle=1;fontSize=11;strokeWidth=2;" parent="1" vertex="1">
          <mxGeometry x="629" y="1005" width="30" height="30" as="geometry" />
        </mxCell>
        <mxCell id="QG6-v7D_vH4LsAMc98OB-13" value="res" style="endArrow=classic;html=1;rounded=0;exitX=1;exitY=0.5;exitDx=0;exitDy=0;entryX=0;entryY=0.5;entryDx=0;entryDy=0;fontStyle=1;fontSize=11;labelBackgroundColor=none;strokeWidth=2;" parent="1" source="QG6-v7D_vH4LsAMc98OB-12" target="QG6-v7D_vH4LsAMc98OB-14" edge="1">
          <mxGeometry y="10" width="50" height="50" relative="1" as="geometry">
            <mxPoint x="669" y="997.5" as="sourcePoint" />
            <mxPoint x="709" y="1017.5" as="targetPoint" />
            <mxPoint as="offset" />
          </mxGeometry>
        </mxCell>
        <mxCell id="QG6-v7D_vH4LsAMc98OB-14" value="&lt;div style=&quot;font-size: 11px;&quot;&gt;Integer&lt;/div&gt;Transform" style="rounded=0;whiteSpace=wrap;html=1;fontStyle=1;fontSize=11;strokeWidth=2;" parent="1" vertex="1">
          <mxGeometry x="690" y="999.5" width="80" height="40" as="geometry" />
        </mxCell>
        <mxCell id="QG6-v7D_vH4LsAMc98OB-15" style="edgeStyle=orthogonalEdgeStyle;rounded=0;orthogonalLoop=1;jettySize=auto;html=1;entryX=0.5;entryY=0;entryDx=0;entryDy=0;fontStyle=1;fontSize=11;strokeWidth=2;" parent="1" source="QG6-v7D_vH4LsAMc98OB-16" target="QG6-v7D_vH4LsAMc98OB-19" edge="1">
          <mxGeometry relative="1" as="geometry" />
        </mxCell>
        <mxCell id="QG6-v7D_vH4LsAMc98OB-16" value="Quantization" style="rounded=0;whiteSpace=wrap;html=1;fontStyle=1;fontSize=11;strokeWidth=2;" parent="1" vertex="1">
          <mxGeometry x="800" y="999.5" width="80" height="40" as="geometry" />
        </mxCell>
        <mxCell id="QG6-v7D_vH4LsAMc98OB-17" value="" style="endArrow=classic;html=1;rounded=0;exitX=1;exitY=0.5;exitDx=0;exitDy=0;entryX=0;entryY=0.5;entryDx=0;entryDy=0;fontStyle=1;fontSize=11;strokeWidth=2;" parent="1" source="QG6-v7D_vH4LsAMc98OB-14" target="QG6-v7D_vH4LsAMc98OB-16" edge="1">
          <mxGeometry width="50" height="50" relative="1" as="geometry">
            <mxPoint x="805" y="1027" as="sourcePoint" />
            <mxPoint x="855" y="977" as="targetPoint" />
          </mxGeometry>
        </mxCell>
        <mxCell id="QG6-v7D_vH4LsAMc98OB-18" value="" style="endArrow=classic;html=1;rounded=0;entryX=0;entryY=0.5;entryDx=0;entryDy=0;exitX=1;exitY=0.5;exitDx=0;exitDy=0;fontStyle=1;fontSize=11;strokeWidth=2;" parent="1" source="QG6-v7D_vH4LsAMc98OB-16" target="QG6-v7D_vH4LsAMc98OB-32" edge="1">
          <mxGeometry width="50" height="50" relative="1" as="geometry">
            <mxPoint x="895" y="1047" as="sourcePoint" />
            <mxPoint x="935" y="1017" as="targetPoint" />
          </mxGeometry>
        </mxCell>
        <mxCell id="QG6-v7D_vH4LsAMc98OB-19" value="&lt;div style=&quot;font-size: 11px;&quot;&gt;Inverse&lt;/div&gt;Quantization" style="rounded=0;whiteSpace=wrap;html=1;fontStyle=1;fontSize=11;strokeWidth=2;" parent="1" vertex="1">
          <mxGeometry x="800" y="1199.5" width="80" height="40" as="geometry" />
        </mxCell>
        <mxCell id="QG6-v7D_vH4LsAMc98OB-20" value="+" style="ellipse;whiteSpace=wrap;html=1;aspect=fixed;fontStyle=1;fontSize=11;strokeWidth=2;" parent="1" vertex="1">
          <mxGeometry x="629" y="1205" width="30" height="30" as="geometry" />
        </mxCell>
        <mxCell id="QG6-v7D_vH4LsAMc98OB-21" value="&lt;div style=&quot;font-size: 11px;&quot;&gt;Inverse&lt;/div&gt;Transform" style="rounded=0;whiteSpace=wrap;html=1;fontStyle=1;fontSize=11;strokeWidth=2;" parent="1" vertex="1">
          <mxGeometry x="690" y="1199.5" width="80" height="40" as="geometry" />
        </mxCell>
        <mxCell id="QG6-v7D_vH4LsAMc98OB-22" value="" style="endArrow=classic;html=1;rounded=0;entryX=1;entryY=0.5;entryDx=0;entryDy=0;exitX=0;exitY=0.5;exitDx=0;exitDy=0;fontStyle=1;fontSize=11;strokeWidth=2;" parent="1" source="QG6-v7D_vH4LsAMc98OB-19" target="QG6-v7D_vH4LsAMc98OB-21" edge="1">
          <mxGeometry width="50" height="50" relative="1" as="geometry">
            <mxPoint x="756" y="1172" as="sourcePoint" />
            <mxPoint x="806" y="1122" as="targetPoint" />
          </mxGeometry>
        </mxCell>
        <mxCell id="QG6-v7D_vH4LsAMc98OB-23" value="" style="endArrow=classic;html=1;rounded=0;entryX=1;entryY=0.5;entryDx=0;entryDy=0;exitX=0;exitY=0.5;exitDx=0;exitDy=0;fontStyle=1;fontSize=11;strokeWidth=2;" parent="1" source="QG6-v7D_vH4LsAMc98OB-21" target="QG6-v7D_vH4LsAMc98OB-20" edge="1">
          <mxGeometry width="50" height="50" relative="1" as="geometry">
            <mxPoint x="710" y="1172.5" as="sourcePoint" />
            <mxPoint x="760" y="1122.5" as="targetPoint" />
          </mxGeometry>
        </mxCell>
        <mxCell id="QG6-v7D_vH4LsAMc98OB-24" value="&lt;font style=&quot;font-size: 11px;&quot;&gt;rec&lt;/font&gt;" style="endArrow=classic;html=1;rounded=0;exitX=0;exitY=0.5;exitDx=0;exitDy=0;entryX=1;entryY=0.5;entryDx=0;entryDy=0;fontStyle=1;strokeColor=default;labelBackgroundColor=none;fontSize=11;strokeWidth=2;" parent="1" source="QG6-v7D_vH4LsAMc98OB-20" target="QG6-v7D_vH4LsAMc98OB-28" edge="1">
          <mxGeometry x="-0.8246" y="-10" width="50" height="50" relative="1" as="geometry">
            <mxPoint x="651" y="1230" as="sourcePoint" />
            <mxPoint x="550" y="1235" as="targetPoint" />
            <mxPoint as="offset" />
          </mxGeometry>
        </mxCell>
        <mxCell id="QG6-v7D_vH4LsAMc98OB-25" value="Prediction&lt;div style=&quot;font-size: 11px;&quot;&gt;Module&lt;/div&gt;" style="rounded=0;whiteSpace=wrap;html=1;fontStyle=1;fontSize=11;strokeWidth=2;" parent="1" vertex="1">
          <mxGeometry x="330" y="970" width="70" height="180" as="geometry" />
        </mxCell>
        <mxCell id="QG6-v7D_vH4LsAMc98OB-26" value="" style="endArrow=classic;html=1;rounded=0;exitX=1.005;exitY=0.892;exitDx=0;exitDy=0;entryX=0;entryY=0.5;entryDx=0;entryDy=0;fontStyle=1;exitPerimeter=0;fontSize=11;strokeWidth=2;" parent="1" source="QG6-v7D_vH4LsAMc98OB-25" target="QG6-v7D_vH4LsAMc98OB-10" edge="1">
          <mxGeometry width="50" height="50" relative="1" as="geometry">
            <mxPoint x="410" y="1135" as="sourcePoint" />
            <mxPoint x="500" y="1105" as="targetPoint" />
          </mxGeometry>
        </mxCell>
        <mxCell id="QG6-v7D_vH4LsAMc98OB-27" style="edgeStyle=orthogonalEdgeStyle;rounded=0;orthogonalLoop=1;jettySize=auto;html=1;fontStyle=1;fontSize=11;strokeWidth=2;" parent="1" source="QG6-v7D_vH4LsAMc98OB-28" edge="1">
          <mxGeometry relative="1" as="geometry">
            <mxPoint x="365" y="1160" as="targetPoint" />
          </mxGeometry>
        </mxCell>
        <mxCell id="QG6-v7D_vH4LsAMc98OB-28" value="Reference&lt;div style=&quot;font-size: 11px;&quot;&gt;Pixels&lt;/div&gt;" style="rounded=0;whiteSpace=wrap;html=1;fontStyle=1;fontSize=11;strokeWidth=2;" parent="1" vertex="1">
          <mxGeometry x="330" y="1197.5" width="70" height="45" as="geometry" />
        </mxCell>
        <mxCell id="QG6-v7D_vH4LsAMc98OB-29" value="" style="endArrow=classic;html=1;rounded=0;exitX=1;exitY=0.5;exitDx=0;exitDy=0;entryX=0;entryY=0.5;entryDx=0;entryDy=0;fontStyle=1;fontSize=11;strokeWidth=2;" parent="1" source="QG6-v7D_vH4LsAMc98OB-25" target="QG6-v7D_vH4LsAMc98OB-5" edge="1">
          <mxGeometry width="50" height="50" relative="1" as="geometry">
            <mxPoint x="410" y="1045" as="sourcePoint" />
            <mxPoint x="470" y="1045" as="targetPoint" />
          </mxGeometry>
        </mxCell>
        <mxCell id="QG6-v7D_vH4LsAMc98OB-30" value="&lt;span style=&quot;font-size: 11px;&quot;&gt;ori&lt;/span&gt;" style="endArrow=classic;html=1;rounded=0;entryX=0.5;entryY=0;entryDx=0;entryDy=0;fontStyle=1;fontSize=11;strokeWidth=2;" parent="1" target="QG6-v7D_vH4LsAMc98OB-12" edge="1">
          <mxGeometry x="0.8652" y="-15" width="50" height="50" relative="1" as="geometry">
            <mxPoint x="300" y="1060" as="sourcePoint" />
            <mxPoint x="660" y="890" as="targetPoint" />
            <Array as="points">
              <mxPoint x="300" y="950" />
              <mxPoint x="644" y="950" />
            </Array>
            <mxPoint as="offset" />
          </mxGeometry>
        </mxCell>
        <mxCell id="QG6-v7D_vH4LsAMc98OB-31" value="" style="endArrow=classic;html=1;rounded=0;exitX=1;exitY=0.5;exitDx=0;exitDy=0;entryX=0;entryY=0.5;entryDx=0;entryDy=0;fontStyle=1;fontSize=11;strokeWidth=2;" parent="1" source="QG6-v7D_vH4LsAMc98OB-40" target="QG6-v7D_vH4LsAMc98OB-2" edge="1">
          <mxGeometry width="50" height="50" relative="1" as="geometry">
            <mxPoint x="280" y="1060" as="sourcePoint" />
            <mxPoint x="220" y="910" as="targetPoint" />
          </mxGeometry>
        </mxCell>
        <mxCell id="QG6-v7D_vH4LsAMc98OB-32" value="CAVLC" style="rounded=0;whiteSpace=wrap;html=1;fontStyle=1;fontSize=11;strokeWidth=2;" parent="1" vertex="1">
          <mxGeometry x="910" y="999.5" width="80" height="40" as="geometry" />
        </mxCell>
        <mxCell id="QG6-v7D_vH4LsAMc98OB-33" value="Stream&lt;div style=&quot;font-size: 11px;&quot;&gt;Generator&lt;/div&gt;" style="rounded=0;whiteSpace=wrap;html=1;fontStyle=1;fontSize=11;strokeWidth=2;" parent="1" vertex="1">
          <mxGeometry x="1020" y="990" width="75" height="140" as="geometry" />
        </mxCell>
        <mxCell id="QG6-v7D_vH4LsAMc98OB-34" value="&lt;span style=&quot;font-size: 11px;&quot;&gt;Coded&amp;nbsp;&lt;/span&gt;&lt;div style=&quot;font-size: 11px;&quot;&gt;&lt;span style=&quot;font-size: 11px;&quot;&gt;Bitstream&lt;/span&gt;&lt;/div&gt;" style="endArrow=classic;html=1;rounded=0;fontStyle=1;labelBackgroundColor=none;fontSize=11;strokeWidth=2;" parent="1" edge="1">
          <mxGeometry width="50" height="50" relative="1" as="geometry">
            <mxPoint x="1120" y="1060" as="sourcePoint" />
            <mxPoint x="1190" y="1060" as="targetPoint" />
            <mxPoint as="offset" />
          </mxGeometry>
        </mxCell>
        <mxCell id="QG6-v7D_vH4LsAMc98OB-35" value="Header&lt;div style=&quot;font-size: 11px;&quot;&gt;Generator&lt;/div&gt;" style="rounded=0;whiteSpace=wrap;html=1;fontStyle=1;fontSize=11;strokeWidth=2;" parent="1" vertex="1">
          <mxGeometry x="910" y="1079.5" width="80" height="60" as="geometry" />
        </mxCell>
        <mxCell id="QG6-v7D_vH4LsAMc98OB-36" style="edgeStyle=orthogonalEdgeStyle;rounded=0;orthogonalLoop=1;jettySize=auto;html=1;exitX=0.994;exitY=0.111;exitDx=0;exitDy=0;exitPerimeter=0;fontStyle=1;fontSize=11;strokeWidth=2;" parent="1" source="QG6-v7D_vH4LsAMc98OB-25" target="QG6-v7D_vH4LsAMc98OB-3" edge="1">
          <mxGeometry relative="1" as="geometry" />
        </mxCell>
        <mxCell id="QG6-v7D_vH4LsAMc98OB-37" value="" style="endArrow=classic;startArrow=classic;html=1;rounded=0;exitX=0.5;exitY=1;exitDx=0;exitDy=0;entryX=0.5;entryY=0;entryDx=0;entryDy=0;fontStyle=1;fontSize=11;strokeWidth=2;" parent="1" source="QG6-v7D_vH4LsAMc98OB-12" target="QG6-v7D_vH4LsAMc98OB-20" edge="1">
          <mxGeometry width="50" height="50" relative="1" as="geometry">
            <mxPoint x="694" y="1070" as="sourcePoint" />
            <mxPoint x="654" y="1170" as="targetPoint" />
          </mxGeometry>
        </mxCell>
        <mxCell id="QG6-v7D_vH4LsAMc98OB-38" value="&lt;span style=&quot;font-size: 11px;&quot;&gt;pre&lt;/span&gt;" style="endArrow=none;html=1;rounded=0;entryX=0.5;entryY=1;entryDx=0;entryDy=0;labelBackgroundColor=none;fontStyle=1;fontSize=11;strokeWidth=2;" parent="1" target="QG6-v7D_vH4LsAMc98OB-12" edge="1">
          <mxGeometry x="-0.633" y="10" width="50" height="50" relative="1" as="geometry">
            <mxPoint x="600" y="1100" as="sourcePoint" />
            <mxPoint x="670" y="1095" as="targetPoint" />
            <Array as="points">
              <mxPoint x="644" y="1100" />
            </Array>
            <mxPoint as="offset" />
          </mxGeometry>
        </mxCell>
        <mxCell id="QG6-v7D_vH4LsAMc98OB-39" value="" style="group;fontStyle=1;fontSize=11;strokeWidth=2;" parent="1" vertex="1" connectable="0">
          <mxGeometry x="130" y="1010" width="150" height="100" as="geometry" />
        </mxCell>
        <mxCell id="QG6-v7D_vH4LsAMc98OB-40" value="" style="rounded=0;whiteSpace=wrap;html=1;dashed=1;dashPattern=1 1;fontStyle=1;fontSize=11;strokeWidth=2;" parent="QG6-v7D_vH4LsAMc98OB-39" vertex="1">
          <mxGeometry width="150" height="100" as="geometry" />
        </mxCell>
        <mxCell id="QG6-v7D_vH4LsAMc98OB-41" value="16x16&lt;div style=&quot;font-size: 11px;&quot;&gt;Luma (Y)&lt;/div&gt;" style="rounded=0;whiteSpace=wrap;html=1;fontStyle=1;fontSize=11;strokeWidth=2;" parent="QG6-v7D_vH4LsAMc98OB-39" vertex="1">
          <mxGeometry x="8.819999999999993" y="30" width="61.18" height="60" as="geometry" />
        </mxCell>
        <mxCell id="QG6-v7D_vH4LsAMc98OB-42" value="8x8&lt;div style=&quot;font-size: 11px;&quot;&gt;Chroma (CrCb)&lt;/div&gt;" style="rounded=0;whiteSpace=wrap;html=1;fontStyle=1;fontSize=11;strokeWidth=2;" parent="QG6-v7D_vH4LsAMc98OB-39" vertex="1">
          <mxGeometry x="80" y="30" width="58.24" height="60" as="geometry" />
        </mxCell>
        <mxCell id="QG6-v7D_vH4LsAMc98OB-43" value="&lt;span style=&quot;font-size: 11px;&quot;&gt;&lt;font style=&quot;font-size: 11px;&quot;&gt;Load MB&lt;/font&gt;&lt;/span&gt;" style="text;html=1;align=center;verticalAlign=middle;whiteSpace=wrap;rounded=0;fontStyle=1;fontSize=11;strokeWidth=2;" parent="QG6-v7D_vH4LsAMc98OB-39" vertex="1">
          <mxGeometry x="30.879999999999995" width="78.24" height="27.27" as="geometry" />
        </mxCell>
        <mxCell id="QG6-v7D_vH4LsAMc98OB-44" style="edgeStyle=orthogonalEdgeStyle;rounded=0;orthogonalLoop=1;jettySize=auto;html=1;entryX=-0.012;entryY=0.214;entryDx=0;entryDy=0;entryPerimeter=0;fontStyle=1;fontSize=11;strokeWidth=2;" parent="1" source="QG6-v7D_vH4LsAMc98OB-32" target="QG6-v7D_vH4LsAMc98OB-33" edge="1">
          <mxGeometry relative="1" as="geometry" />
        </mxCell>
        <mxCell id="QG6-v7D_vH4LsAMc98OB-45" style="edgeStyle=orthogonalEdgeStyle;rounded=0;orthogonalLoop=1;jettySize=auto;html=1;entryX=0;entryY=0.856;entryDx=0;entryDy=0;entryPerimeter=0;fontStyle=1;fontSize=11;strokeWidth=2;" parent="1" source="QG6-v7D_vH4LsAMc98OB-35" target="QG6-v7D_vH4LsAMc98OB-33" edge="1">
          <mxGeometry relative="1" as="geometry" />
        </mxCell>
        <mxCell id="QG6-v7D_vH4LsAMc98OB-46" value="Input Video&lt;div style=&quot;font-size: 11px;&quot;&gt;Data&lt;/div&gt;" style="endArrow=classic;html=1;rounded=0;labelBackgroundColor=none;fontStyle=1;fontSize=11;strokeWidth=2;" parent="1" edge="1">
          <mxGeometry x="-0.1429" width="50" height="50" relative="1" as="geometry">
            <mxPoint x="40" y="1060" as="sourcePoint" />
            <mxPoint x="110" y="1060" as="targetPoint" />
            <mxPoint as="offset" />
          </mxGeometry>
        </mxCell>
        <mxCell id="QG6-v7D_vH4LsAMc98OB-47" value="" style="endArrow=none;dashed=1;html=1;rounded=0;exitX=1;exitY=0.5;exitDx=0;exitDy=0;entryX=1;entryY=0.389;entryDx=0;entryDy=0;entryPerimeter=0;fontStyle=1;fontSize=11;dashPattern=1 2;strokeWidth=2;" parent="1" source="QG6-v7D_vH4LsAMc98OB-33" edge="1">
          <mxGeometry width="50" height="50" relative="1" as="geometry">
            <mxPoint x="1090" y="1060" as="sourcePoint" />
            <mxPoint x="1120" y="1060.04" as="targetPoint" />
          </mxGeometry>
        </mxCell>
        <mxCell id="QG6-v7D_vH4LsAMc98OB-48" value="" style="endArrow=none;dashed=1;html=1;rounded=0;exitX=-0.001;exitY=0.388;exitDx=0;exitDy=0;exitPerimeter=0;entryX=0;entryY=0.5;entryDx=0;entryDy=0;fontStyle=1;fontSize=11;dashPattern=1 1;strokeWidth=2;" parent="1" target="QG6-v7D_vH4LsAMc98OB-40" edge="1">
          <mxGeometry width="50" height="50" relative="1" as="geometry">
            <mxPoint x="108.8900000000001" y="1059.68" as="sourcePoint" />
            <mxPoint x="140" y="990" as="targetPoint" />
          </mxGeometry>
        </mxCell>
        <mxCell id="QG6-v7D_vH4LsAMc98OB-49" value="&lt;span style=&quot;font-size: 11px;&quot;&gt;H.264/AVC Intra Encoder&lt;/span&gt;" style="text;html=1;align=center;verticalAlign=middle;whiteSpace=wrap;rounded=0;fontStyle=1;fontSize=11;strokeWidth=2;" parent="1" vertex="1">
          <mxGeometry x="110" y="920" width="160" height="30" as="geometry" />
        </mxCell>
        <mxCell id="QG6-v7D_vH4LsAMc98OB-59" value="" style="endArrow=none;html=1;rounded=0;entryX=0;entryY=0.5;entryDx=0;entryDy=0;dashed=1;dashPattern=1 1;strokeWidth=2;" parent="1" target="QG6-v7D_vH4LsAMc98OB-25" edge="1">
          <mxGeometry width="50" height="50" relative="1" as="geometry">
            <mxPoint x="320" y="1060" as="sourcePoint" />
            <mxPoint x="350" y="1030" as="targetPoint" />
          </mxGeometry>
        </mxCell>
        <mxCell id="QG6-v7D_vH4LsAMc98OB-60" value="" style="endArrow=none;html=1;rounded=0;exitX=0.16;exitY=0.997;exitDx=0;exitDy=0;exitPerimeter=0;entryX=0.5;entryY=1;entryDx=0;entryDy=0;dashed=1;dashPattern=1 2;strokeWidth=2;" parent="1" source="QG6-v7D_vH4LsAMc98OB-2" target="QG6-v7D_vH4LsAMc98OB-25" edge="1">
          <mxGeometry width="50" height="50" relative="1" as="geometry">
            <mxPoint x="330" y="1130" as="sourcePoint" />
            <mxPoint x="380" y="1080" as="targetPoint" />
          </mxGeometry>
        </mxCell>
        <mxCell id="QG6-v7D_vH4LsAMc98OB-61" value="" style="endArrow=none;html=1;rounded=0;exitX=0.5;exitY=0;exitDx=0;exitDy=0;entryX=1.001;entryY=0.7;entryDx=0;entryDy=0;entryPerimeter=0;dashed=1;dashPattern=1 2;strokeWidth=2;" parent="1" edge="1">
          <mxGeometry width="50" height="50" relative="1" as="geometry">
            <mxPoint x="599.72" y="1100" as="sourcePoint" />
            <mxPoint x="580" y="1100" as="targetPoint" />
          </mxGeometry>
        </mxCell>
        <mxCell id="PVWldIyeM4u14GLB0WaG-1" value="" style="endArrow=none;html=1;rounded=0;exitX=1;exitY=0.5;exitDx=0;exitDy=0;entryX=0.5;entryY=0;entryDx=0;entryDy=0;strokeWidth=2;" parent="1" source="QG6-v7D_vH4LsAMc98OB-10" target="QG6-v7D_vH4LsAMc98OB-7" edge="1">
          <mxGeometry width="50" height="50" relative="1" as="geometry">
            <mxPoint x="440" y="1100" as="sourcePoint" />
            <mxPoint x="490" y="1050" as="targetPoint" />
            <Array as="points">
              <mxPoint x="580" y="1130" />
              <mxPoint x="580" y="1025" />
            </Array>
          </mxGeometry>
        </mxCell>
      </root>
    </mxGraphModel>
  </diagram>
</mxfile>
